<mxfile host="app.diagrams.net" modified="2024-03-14T03:22:45.628Z" agent="Mozilla/5.0 (Windows NT 10.0; Win64; x64) AppleWebKit/537.36 (KHTML, like Gecko) Chrome/122.0.0.0 Safari/537.36" etag="cqCQ9ExSdLS4RVk4wJDu" version="24.0.6" type="device" pages="2">
  <diagram id="R2lEEEUBdFMjLlhIrx00" name="Page-1">
    <mxGraphModel dx="1474" dy="796" grid="1" gridSize="10" guides="1" tooltips="1" connect="1" arrows="1" fold="1" page="1" pageScale="1" pageWidth="3300" pageHeight="4681" math="0" shadow="0" extFonts="Permanent Marker^https://fonts.googleapis.com/css?family=Permanent+Marker">
      <root>
        <mxCell id="0" />
        <mxCell id="1" parent="0" />
        <mxCell id="VDO-NJuJKdAogAIneXLv-1" value="비회원" style="shape=umlActor;verticalLabelPosition=bottom;verticalAlign=top;html=1;outlineConnect=0;" vertex="1" parent="1">
          <mxGeometry x="10" y="636" width="30" height="60" as="geometry" />
        </mxCell>
        <mxCell id="VDO-NJuJKdAogAIneXLv-2" value="회원" style="shape=umlActor;verticalLabelPosition=bottom;verticalAlign=top;html=1;outlineConnect=0;" vertex="1" parent="1">
          <mxGeometry x="17" y="923" width="30" height="60" as="geometry" />
        </mxCell>
        <mxCell id="VDO-NJuJKdAogAIneXLv-3" value="회원가입" style="ellipse;whiteSpace=wrap;html=1;" vertex="1" parent="1">
          <mxGeometry x="167" y="540" width="90" height="60" as="geometry" />
        </mxCell>
        <mxCell id="VDO-NJuJKdAogAIneXLv-7" value="축제조회" style="ellipse;whiteSpace=wrap;html=1;" vertex="1" parent="1">
          <mxGeometry x="167" y="620" width="90" height="60" as="geometry" />
        </mxCell>
        <mxCell id="VDO-NJuJKdAogAIneXLv-9" value="체험조회" style="ellipse;whiteSpace=wrap;html=1;" vertex="1" parent="1">
          <mxGeometry x="167" y="700" width="90" height="60" as="geometry" />
        </mxCell>
        <mxCell id="VDO-NJuJKdAogAIneXLv-10" value="커뮤니티&amp;nbsp;&lt;div&gt;활동&lt;/div&gt;" style="ellipse;whiteSpace=wrap;html=1;" vertex="1" parent="1">
          <mxGeometry x="420" y="780" width="90" height="60" as="geometry" />
        </mxCell>
        <mxCell id="VDO-NJuJKdAogAIneXLv-12" value="" style="endArrow=none;html=1;rounded=0;fontSize=12;startSize=8;endSize=8;curved=1;entryX=-0.022;entryY=0.617;entryDx=0;entryDy=0;entryPerimeter=0;exitX=0.75;exitY=0.1;exitDx=0;exitDy=0;exitPerimeter=0;" edge="1" parent="1" source="VDO-NJuJKdAogAIneXLv-1" target="VDO-NJuJKdAogAIneXLv-3">
          <mxGeometry width="50" height="50" relative="1" as="geometry">
            <mxPoint x="67" y="650" as="sourcePoint" />
            <mxPoint x="117" y="600" as="targetPoint" />
          </mxGeometry>
        </mxCell>
        <mxCell id="VDO-NJuJKdAogAIneXLv-13" value="use" style="edgeLabel;html=1;align=center;verticalAlign=middle;resizable=0;points=[];fontSize=12;" vertex="1" connectable="0" parent="VDO-NJuJKdAogAIneXLv-12">
          <mxGeometry x="-0.0175" y="2" relative="1" as="geometry">
            <mxPoint y="-1" as="offset" />
          </mxGeometry>
        </mxCell>
        <mxCell id="VDO-NJuJKdAogAIneXLv-14" value="" style="endArrow=none;html=1;rounded=0;fontSize=12;startSize=8;endSize=8;curved=1;entryX=-0.044;entryY=0.383;entryDx=0;entryDy=0;entryPerimeter=0;exitX=0.75;exitY=0.1;exitDx=0;exitDy=0;exitPerimeter=0;" edge="1" parent="1" source="VDO-NJuJKdAogAIneXLv-1" target="VDO-NJuJKdAogAIneXLv-7">
          <mxGeometry width="50" height="50" relative="1" as="geometry">
            <mxPoint x="47" y="640" as="sourcePoint" />
            <mxPoint x="175" y="587" as="targetPoint" />
          </mxGeometry>
        </mxCell>
        <mxCell id="VDO-NJuJKdAogAIneXLv-15" value="use" style="edgeLabel;html=1;align=center;verticalAlign=middle;resizable=0;points=[];fontSize=12;" vertex="1" connectable="0" parent="VDO-NJuJKdAogAIneXLv-14">
          <mxGeometry x="-0.0175" y="2" relative="1" as="geometry">
            <mxPoint y="-1" as="offset" />
          </mxGeometry>
        </mxCell>
        <mxCell id="VDO-NJuJKdAogAIneXLv-16" value="" style="endArrow=none;html=1;rounded=0;fontSize=12;startSize=8;endSize=8;curved=1;entryX=-0.011;entryY=0.317;entryDx=0;entryDy=0;entryPerimeter=0;exitX=0.75;exitY=0.1;exitDx=0;exitDy=0;exitPerimeter=0;" edge="1" parent="1" source="VDO-NJuJKdAogAIneXLv-1" target="VDO-NJuJKdAogAIneXLv-9">
          <mxGeometry width="50" height="50" relative="1" as="geometry">
            <mxPoint x="60" y="666" as="sourcePoint" />
            <mxPoint x="185" y="597" as="targetPoint" />
          </mxGeometry>
        </mxCell>
        <mxCell id="VDO-NJuJKdAogAIneXLv-17" value="use" style="edgeLabel;html=1;align=center;verticalAlign=middle;resizable=0;points=[];fontSize=12;" vertex="1" connectable="0" parent="VDO-NJuJKdAogAIneXLv-16">
          <mxGeometry x="-0.0175" y="2" relative="1" as="geometry">
            <mxPoint y="-1" as="offset" />
          </mxGeometry>
        </mxCell>
        <mxCell id="VDO-NJuJKdAogAIneXLv-20" value="" style="endArrow=none;html=1;rounded=0;fontSize=12;startSize=8;endSize=8;curved=1;exitX=1;exitY=0.3333333333333333;exitDx=0;exitDy=0;exitPerimeter=0;entryX=0.111;entryY=0.833;entryDx=0;entryDy=0;entryPerimeter=0;" edge="1" parent="1" source="VDO-NJuJKdAogAIneXLv-2" target="VDO-NJuJKdAogAIneXLv-9">
          <mxGeometry width="50" height="50" relative="1" as="geometry">
            <mxPoint x="43" y="652" as="sourcePoint" />
            <mxPoint x="167" y="750" as="targetPoint" />
          </mxGeometry>
        </mxCell>
        <mxCell id="VDO-NJuJKdAogAIneXLv-21" value="use" style="edgeLabel;html=1;align=center;verticalAlign=middle;resizable=0;points=[];fontSize=12;" vertex="1" connectable="0" parent="VDO-NJuJKdAogAIneXLv-20">
          <mxGeometry x="-0.0175" y="2" relative="1" as="geometry">
            <mxPoint y="-1" as="offset" />
          </mxGeometry>
        </mxCell>
        <mxCell id="VDO-NJuJKdAogAIneXLv-22" value="" style="endArrow=none;html=1;rounded=0;fontSize=12;startSize=8;endSize=8;curved=1;exitX=1;exitY=0.3333333333333333;exitDx=0;exitDy=0;exitPerimeter=0;entryX=0;entryY=0.383;entryDx=0;entryDy=0;entryPerimeter=0;" edge="1" parent="1" source="VDO-NJuJKdAogAIneXLv-2" target="VDO-NJuJKdAogAIneXLv-7">
          <mxGeometry width="50" height="50" relative="1" as="geometry">
            <mxPoint x="57" y="880" as="sourcePoint" />
            <mxPoint x="187" y="760" as="targetPoint" />
          </mxGeometry>
        </mxCell>
        <mxCell id="VDO-NJuJKdAogAIneXLv-23" value="use" style="edgeLabel;html=1;align=center;verticalAlign=middle;resizable=0;points=[];fontSize=12;" vertex="1" connectable="0" parent="VDO-NJuJKdAogAIneXLv-22">
          <mxGeometry x="-0.0175" y="2" relative="1" as="geometry">
            <mxPoint y="-1" as="offset" />
          </mxGeometry>
        </mxCell>
        <mxCell id="VDO-NJuJKdAogAIneXLv-26" value="전체&amp;nbsp;&lt;div&gt;조회&lt;/div&gt;" style="ellipse;whiteSpace=wrap;html=1;" vertex="1" parent="1">
          <mxGeometry x="327" y="600" width="60" height="40" as="geometry" />
        </mxCell>
        <mxCell id="VDO-NJuJKdAogAIneXLv-28" value="키워드&lt;div&gt;조회&lt;/div&gt;" style="ellipse;whiteSpace=wrap;html=1;" vertex="1" parent="1">
          <mxGeometry x="327" y="650" width="60" height="40" as="geometry" />
        </mxCell>
        <mxCell id="VDO-NJuJKdAogAIneXLv-31" value="전체&lt;div&gt;조회&lt;/div&gt;" style="ellipse;whiteSpace=wrap;html=1;" vertex="1" parent="1">
          <mxGeometry x="327" y="696" width="60" height="40" as="geometry" />
        </mxCell>
        <mxCell id="VDO-NJuJKdAogAIneXLv-32" value="키워드&lt;div&gt;조회&lt;/div&gt;" style="ellipse;whiteSpace=wrap;html=1;" vertex="1" parent="1">
          <mxGeometry x="327" y="750" width="60" height="40" as="geometry" />
        </mxCell>
        <mxCell id="VDO-NJuJKdAogAIneXLv-34" value="가이드 북&amp;nbsp;&lt;div&gt;구매&lt;/div&gt;" style="ellipse;whiteSpace=wrap;html=1;" vertex="1" parent="1">
          <mxGeometry x="250" y="902" width="90" height="60" as="geometry" />
        </mxCell>
        <mxCell id="VDO-NJuJKdAogAIneXLv-35" value="커뮤니티&amp;nbsp;&lt;div&gt;활동&lt;/div&gt;" style="ellipse;whiteSpace=wrap;html=1;" vertex="1" parent="1">
          <mxGeometry x="250" y="972" width="90" height="60" as="geometry" />
        </mxCell>
        <mxCell id="VDO-NJuJKdAogAIneXLv-174" style="edgeStyle=none;curved=1;rounded=0;orthogonalLoop=1;jettySize=auto;html=1;entryX=0;entryY=0.5;entryDx=0;entryDy=0;fontSize=12;startSize=8;endSize=8;dashed=1;endArrow=none;endFill=0;" edge="1" parent="1" source="VDO-NJuJKdAogAIneXLv-36" target="VDO-NJuJKdAogAIneXLv-172">
          <mxGeometry relative="1" as="geometry" />
        </mxCell>
        <mxCell id="VDO-NJuJKdAogAIneXLv-177" value="&amp;lt;&amp;lt;include&amp;gt;&amp;gt;" style="edgeLabel;html=1;align=center;verticalAlign=middle;resizable=0;points=[];fontSize=12;" vertex="1" connectable="0" parent="VDO-NJuJKdAogAIneXLv-174">
          <mxGeometry x="-0.1073" relative="1" as="geometry">
            <mxPoint as="offset" />
          </mxGeometry>
        </mxCell>
        <mxCell id="VDO-NJuJKdAogAIneXLv-36" value="회원 수정" style="ellipse;whiteSpace=wrap;html=1;" vertex="1" parent="1">
          <mxGeometry x="160" y="1052" width="90" height="60" as="geometry" />
        </mxCell>
        <mxCell id="VDO-NJuJKdAogAIneXLv-175" style="edgeStyle=none;curved=1;rounded=0;orthogonalLoop=1;jettySize=auto;html=1;exitX=1;exitY=0.5;exitDx=0;exitDy=0;fontSize=12;startSize=8;endSize=8;dashed=1;" edge="1" parent="1" source="VDO-NJuJKdAogAIneXLv-37" target="VDO-NJuJKdAogAIneXLv-172">
          <mxGeometry relative="1" as="geometry" />
        </mxCell>
        <mxCell id="VDO-NJuJKdAogAIneXLv-178" value="Text" style="edgeLabel;html=1;align=center;verticalAlign=middle;resizable=0;points=[];fontSize=12;" vertex="1" connectable="0" parent="VDO-NJuJKdAogAIneXLv-175">
          <mxGeometry x="0.2377" y="3" relative="1" as="geometry">
            <mxPoint as="offset" />
          </mxGeometry>
        </mxCell>
        <mxCell id="VDO-NJuJKdAogAIneXLv-179" value="&amp;lt;&amp;lt;include&amp;gt;&amp;gt;" style="edgeLabel;html=1;align=center;verticalAlign=middle;resizable=0;points=[];fontSize=12;" vertex="1" connectable="0" parent="VDO-NJuJKdAogAIneXLv-175">
          <mxGeometry x="-0.2473" y="1" relative="1" as="geometry">
            <mxPoint as="offset" />
          </mxGeometry>
        </mxCell>
        <mxCell id="VDO-NJuJKdAogAIneXLv-37" value="회원탈퇴" style="ellipse;whiteSpace=wrap;html=1;" vertex="1" parent="1">
          <mxGeometry x="160" y="1132" width="90" height="60" as="geometry" />
        </mxCell>
        <mxCell id="VDO-NJuJKdAogAIneXLv-176" style="edgeStyle=none;curved=1;rounded=0;orthogonalLoop=1;jettySize=auto;html=1;entryX=0;entryY=0.5;entryDx=0;entryDy=0;fontSize=12;startSize=8;endSize=8;dashed=1;endArrow=none;endFill=0;" edge="1" parent="1" source="VDO-NJuJKdAogAIneXLv-38" target="VDO-NJuJKdAogAIneXLv-172">
          <mxGeometry relative="1" as="geometry" />
        </mxCell>
        <mxCell id="VDO-NJuJKdAogAIneXLv-180" value="&amp;lt;&amp;lt;include&amp;gt;&amp;gt;" style="edgeLabel;html=1;align=center;verticalAlign=middle;resizable=0;points=[];fontSize=12;" vertex="1" connectable="0" parent="VDO-NJuJKdAogAIneXLv-176">
          <mxGeometry x="-0.1008" relative="1" as="geometry">
            <mxPoint as="offset" />
          </mxGeometry>
        </mxCell>
        <mxCell id="VDO-NJuJKdAogAIneXLv-38" value="회원정보&lt;div&gt;조회&lt;/div&gt;" style="ellipse;whiteSpace=wrap;html=1;" vertex="1" parent="1">
          <mxGeometry x="160" y="1222" width="90" height="60" as="geometry" />
        </mxCell>
        <mxCell id="VDO-NJuJKdAogAIneXLv-159" style="edgeStyle=none;curved=1;rounded=0;orthogonalLoop=1;jettySize=auto;html=1;entryX=1;entryY=0.5;entryDx=0;entryDy=0;fontSize=12;startSize=8;endSize=8;endArrow=block;endFill=0;" edge="1" parent="1" source="VDO-NJuJKdAogAIneXLv-39" target="VDO-NJuJKdAogAIneXLv-34">
          <mxGeometry relative="1" as="geometry" />
        </mxCell>
        <mxCell id="VDO-NJuJKdAogAIneXLv-39" value="결제요청" style="ellipse;whiteSpace=wrap;html=1;" vertex="1" parent="1">
          <mxGeometry x="380" y="902" width="90" height="60" as="geometry" />
        </mxCell>
        <mxCell id="VDO-NJuJKdAogAIneXLv-158" style="edgeStyle=none;curved=1;rounded=0;orthogonalLoop=1;jettySize=auto;html=1;entryX=1;entryY=0.5;entryDx=0;entryDy=0;fontSize=12;startSize=8;endSize=8;endArrow=blockThin;endFill=0;" edge="1" parent="1" source="VDO-NJuJKdAogAIneXLv-40" target="VDO-NJuJKdAogAIneXLv-39">
          <mxGeometry relative="1" as="geometry" />
        </mxCell>
        <mxCell id="VDO-NJuJKdAogAIneXLv-40" value="결제방식" style="ellipse;whiteSpace=wrap;html=1;" vertex="1" parent="1">
          <mxGeometry x="510" y="902" width="90" height="60" as="geometry" />
        </mxCell>
        <mxCell id="VDO-NJuJKdAogAIneXLv-42" value="게시물&lt;div&gt;작성&lt;/div&gt;" style="ellipse;whiteSpace=wrap;html=1;" vertex="1" parent="1">
          <mxGeometry x="560" y="790" width="60" height="40" as="geometry" />
        </mxCell>
        <mxCell id="VDO-NJuJKdAogAIneXLv-43" value="게시물&lt;div&gt;수정&lt;/div&gt;" style="ellipse;whiteSpace=wrap;html=1;" vertex="1" parent="1">
          <mxGeometry x="560" y="840" width="60" height="40" as="geometry" />
        </mxCell>
        <mxCell id="VDO-NJuJKdAogAIneXLv-155" style="edgeStyle=orthogonalEdgeStyle;rounded=0;orthogonalLoop=1;jettySize=auto;html=1;entryX=0.5;entryY=1;entryDx=0;entryDy=0;fontSize=12;startSize=8;endSize=8;endArrow=block;endFill=0;" edge="1" parent="1" source="VDO-NJuJKdAogAIneXLv-49" target="VDO-NJuJKdAogAIneXLv-40">
          <mxGeometry relative="1" as="geometry" />
        </mxCell>
        <mxCell id="VDO-NJuJKdAogAIneXLv-49" value="무통장" style="ellipse;whiteSpace=wrap;html=1;" vertex="1" parent="1">
          <mxGeometry x="450" y="1012" width="60" height="40" as="geometry" />
        </mxCell>
        <mxCell id="VDO-NJuJKdAogAIneXLv-156" style="edgeStyle=none;curved=1;rounded=0;orthogonalLoop=1;jettySize=auto;html=1;fontSize=12;startSize=8;endSize=8;endArrow=block;endFill=0;" edge="1" parent="1" target="VDO-NJuJKdAogAIneXLv-40">
          <mxGeometry relative="1" as="geometry">
            <mxPoint x="555" y="1012" as="sourcePoint" />
          </mxGeometry>
        </mxCell>
        <mxCell id="VDO-NJuJKdAogAIneXLv-50" value="신용카드" style="ellipse;whiteSpace=wrap;html=1;" vertex="1" parent="1">
          <mxGeometry x="525" y="1012" width="60" height="40" as="geometry" />
        </mxCell>
        <mxCell id="VDO-NJuJKdAogAIneXLv-157" style="edgeStyle=orthogonalEdgeStyle;rounded=0;orthogonalLoop=1;jettySize=auto;html=1;entryX=0.5;entryY=1;entryDx=0;entryDy=0;fontSize=12;startSize=8;endSize=8;endArrow=blockThin;endFill=0;" edge="1" parent="1" source="VDO-NJuJKdAogAIneXLv-51" target="VDO-NJuJKdAogAIneXLv-40">
          <mxGeometry relative="1" as="geometry" />
        </mxCell>
        <mxCell id="VDO-NJuJKdAogAIneXLv-51" value="휴대폰" style="ellipse;whiteSpace=wrap;html=1;" vertex="1" parent="1">
          <mxGeometry x="600" y="1012" width="60" height="40" as="geometry" />
        </mxCell>
        <mxCell id="VDO-NJuJKdAogAIneXLv-153" style="edgeStyle=none;curved=1;rounded=0;orthogonalLoop=1;jettySize=auto;html=1;exitX=0;exitY=0.5;exitDx=0;exitDy=0;entryX=1;entryY=0.5;entryDx=0;entryDy=0;fontSize=12;startSize=8;endSize=8;" edge="1" parent="1" source="VDO-NJuJKdAogAIneXLv-52" target="VDO-NJuJKdAogAIneXLv-40">
          <mxGeometry relative="1" as="geometry" />
        </mxCell>
        <mxCell id="VDO-NJuJKdAogAIneXLv-154" value="&amp;lt;&amp;lt;include&amp;gt;&amp;gt;" style="edgeLabel;html=1;align=center;verticalAlign=middle;resizable=0;points=[];fontSize=12;" vertex="1" connectable="0" parent="VDO-NJuJKdAogAIneXLv-153">
          <mxGeometry x="-0.0727" y="1" relative="1" as="geometry">
            <mxPoint as="offset" />
          </mxGeometry>
        </mxCell>
        <mxCell id="VDO-NJuJKdAogAIneXLv-52" value="결제정보&lt;div&gt;확인&lt;/div&gt;" style="ellipse;whiteSpace=wrap;html=1;" vertex="1" parent="1">
          <mxGeometry x="710" y="902" width="90" height="60" as="geometry" />
        </mxCell>
        <mxCell id="VDO-NJuJKdAogAIneXLv-53" value="관리자" style="shape=umlActor;verticalLabelPosition=bottom;verticalAlign=top;html=1;outlineConnect=0;" vertex="1" parent="1">
          <mxGeometry x="1150" y="776" width="30" height="60" as="geometry" />
        </mxCell>
        <mxCell id="VDO-NJuJKdAogAIneXLv-54" value="회원관리" style="ellipse;whiteSpace=wrap;html=1;" vertex="1" parent="1">
          <mxGeometry x="980" y="660" width="90" height="60" as="geometry" />
        </mxCell>
        <mxCell id="VDO-NJuJKdAogAIneXLv-56" value="게시물관리" style="ellipse;whiteSpace=wrap;html=1;" vertex="1" parent="1">
          <mxGeometry x="980" y="1090" width="90" height="60" as="geometry" />
        </mxCell>
        <mxCell id="VDO-NJuJKdAogAIneXLv-96" style="edgeStyle=none;curved=1;rounded=0;orthogonalLoop=1;jettySize=auto;html=1;entryX=0;entryY=0.5;entryDx=0;entryDy=0;fontSize=12;startSize=8;endSize=8;endArrow=block;endFill=0;" edge="1" parent="1" source="VDO-NJuJKdAogAIneXLv-60" target="VDO-NJuJKdAogAIneXLv-54">
          <mxGeometry relative="1" as="geometry" />
        </mxCell>
        <mxCell id="VDO-NJuJKdAogAIneXLv-60" value="게시물&lt;div&gt;조회&lt;/div&gt;" style="ellipse;whiteSpace=wrap;html=1;" vertex="1" parent="1">
          <mxGeometry x="870" y="670" width="60" height="40" as="geometry" />
        </mxCell>
        <mxCell id="VDO-NJuJKdAogAIneXLv-95" style="edgeStyle=orthogonalEdgeStyle;rounded=0;orthogonalLoop=1;jettySize=auto;html=1;exitX=1;exitY=0.5;exitDx=0;exitDy=0;fontSize=12;startSize=8;endSize=8;entryX=0;entryY=0.5;entryDx=0;entryDy=0;endArrow=block;endFill=0;" edge="1" parent="1" source="VDO-NJuJKdAogAIneXLv-61" target="VDO-NJuJKdAogAIneXLv-54">
          <mxGeometry relative="1" as="geometry">
            <mxPoint x="950" y="690" as="targetPoint" />
          </mxGeometry>
        </mxCell>
        <mxCell id="VDO-NJuJKdAogAIneXLv-61" value="게시물&lt;div&gt;조회&lt;/div&gt;" style="ellipse;whiteSpace=wrap;html=1;" vertex="1" parent="1">
          <mxGeometry x="870" y="720" width="60" height="40" as="geometry" />
        </mxCell>
        <mxCell id="VDO-NJuJKdAogAIneXLv-97" style="edgeStyle=orthogonalEdgeStyle;rounded=0;orthogonalLoop=1;jettySize=auto;html=1;entryX=0;entryY=0.5;entryDx=0;entryDy=0;fontSize=12;startSize=8;endSize=8;endArrow=block;endFill=0;" edge="1" parent="1" source="VDO-NJuJKdAogAIneXLv-62" target="VDO-NJuJKdAogAIneXLv-54">
          <mxGeometry relative="1" as="geometry" />
        </mxCell>
        <mxCell id="VDO-NJuJKdAogAIneXLv-62" value="게시물&lt;div&gt;조회&lt;/div&gt;" style="ellipse;whiteSpace=wrap;html=1;" vertex="1" parent="1">
          <mxGeometry x="870" y="620" width="60" height="40" as="geometry" />
        </mxCell>
        <mxCell id="VDO-NJuJKdAogAIneXLv-122" style="edgeStyle=orthogonalEdgeStyle;rounded=0;orthogonalLoop=1;jettySize=auto;html=1;entryX=0.5;entryY=0;entryDx=0;entryDy=0;fontSize=12;startSize=8;endSize=8;endArrow=blockThin;endFill=0;" edge="1" parent="1" source="VDO-NJuJKdAogAIneXLv-63" target="VDO-NJuJKdAogAIneXLv-62">
          <mxGeometry relative="1" as="geometry" />
        </mxCell>
        <mxCell id="VDO-NJuJKdAogAIneXLv-63" value="전체" style="ellipse;whiteSpace=wrap;html=1;" vertex="1" parent="1">
          <mxGeometry x="930" y="530" width="60" height="40" as="geometry" />
        </mxCell>
        <mxCell id="VDO-NJuJKdAogAIneXLv-121" style="edgeStyle=orthogonalEdgeStyle;rounded=0;orthogonalLoop=1;jettySize=auto;html=1;entryX=0.5;entryY=0;entryDx=0;entryDy=0;fontSize=12;startSize=8;endSize=8;endArrow=block;endFill=0;" edge="1" parent="1" source="VDO-NJuJKdAogAIneXLv-64" target="VDO-NJuJKdAogAIneXLv-62">
          <mxGeometry relative="1" as="geometry" />
        </mxCell>
        <mxCell id="VDO-NJuJKdAogAIneXLv-64" value="키워드" style="ellipse;whiteSpace=wrap;html=1;" vertex="1" parent="1">
          <mxGeometry x="820" y="530" width="60" height="40" as="geometry" />
        </mxCell>
        <mxCell id="VDO-NJuJKdAogAIneXLv-125" value="e" style="edgeStyle=orthogonalEdgeStyle;rounded=0;orthogonalLoop=1;jettySize=auto;html=1;entryX=0;entryY=1;entryDx=0;entryDy=0;fontSize=12;startSize=8;endSize=8;endArrow=blockThin;endFill=0;exitX=0.5;exitY=0;exitDx=0;exitDy=0;dashed=1;" edge="1" parent="1" source="VDO-NJuJKdAogAIneXLv-65" target="VDO-NJuJKdAogAIneXLv-69">
          <mxGeometry relative="1" as="geometry">
            <Array as="points">
              <mxPoint x="900" y="1000" />
              <mxPoint x="957" y="1000" />
              <mxPoint x="957" y="966" />
            </Array>
          </mxGeometry>
        </mxCell>
        <mxCell id="VDO-NJuJKdAogAIneXLv-127" value="&amp;lt;&amp;lt;extends&amp;gt;&amp;gt;" style="edgeLabel;html=1;align=center;verticalAlign=middle;resizable=0;points=[];fontSize=12;" vertex="1" connectable="0" parent="VDO-NJuJKdAogAIneXLv-125">
          <mxGeometry x="0.0499" y="-3" relative="1" as="geometry">
            <mxPoint as="offset" />
          </mxGeometry>
        </mxCell>
        <mxCell id="VDO-NJuJKdAogAIneXLv-65" value="게시물&lt;div&gt;조회&lt;/div&gt;" style="ellipse;whiteSpace=wrap;html=1;" vertex="1" parent="1">
          <mxGeometry x="870" y="1028" width="60" height="40" as="geometry" />
        </mxCell>
        <mxCell id="VDO-NJuJKdAogAIneXLv-66" value="게시물&lt;div&gt;작성&lt;/div&gt;" style="ellipse;whiteSpace=wrap;html=1;" vertex="1" parent="1">
          <mxGeometry x="870" y="1080" width="60" height="40" as="geometry" />
        </mxCell>
        <mxCell id="VDO-NJuJKdAogAIneXLv-67" value="게시물&lt;div&gt;수정&lt;/div&gt;" style="ellipse;whiteSpace=wrap;html=1;" vertex="1" parent="1">
          <mxGeometry x="870" y="1132" width="60" height="40" as="geometry" />
        </mxCell>
        <mxCell id="VDO-NJuJKdAogAIneXLv-68" value="게시물&lt;div&gt;삭제&lt;/div&gt;" style="ellipse;whiteSpace=wrap;html=1;" vertex="1" parent="1">
          <mxGeometry x="870" y="1182" width="60" height="40" as="geometry" />
        </mxCell>
        <mxCell id="VDO-NJuJKdAogAIneXLv-69" value="글" style="ellipse;whiteSpace=wrap;html=1;" vertex="1" parent="1">
          <mxGeometry x="930" y="934" width="50" height="38" as="geometry" />
        </mxCell>
        <mxCell id="VDO-NJuJKdAogAIneXLv-71" value="이미지" style="ellipse;whiteSpace=wrap;html=1;" vertex="1" parent="1">
          <mxGeometry x="820" y="934" width="50" height="38" as="geometry" />
        </mxCell>
        <mxCell id="VDO-NJuJKdAogAIneXLv-72" value="" style="endArrow=none;html=1;rounded=0;fontSize=12;startSize=8;endSize=8;curved=1;exitX=1;exitY=0.5;exitDx=0;exitDy=0;entryX=0;entryY=0.3333333333333333;entryDx=0;entryDy=0;entryPerimeter=0;" edge="1" parent="1" source="VDO-NJuJKdAogAIneXLv-54" target="VDO-NJuJKdAogAIneXLv-53">
          <mxGeometry width="50" height="50" relative="1" as="geometry">
            <mxPoint x="990" y="1005" as="sourcePoint" />
            <mxPoint x="1120" y="812" as="targetPoint" />
          </mxGeometry>
        </mxCell>
        <mxCell id="VDO-NJuJKdAogAIneXLv-73" value="use" style="edgeLabel;html=1;align=center;verticalAlign=middle;resizable=0;points=[];fontSize=12;" vertex="1" connectable="0" parent="VDO-NJuJKdAogAIneXLv-72">
          <mxGeometry x="-0.0175" y="2" relative="1" as="geometry">
            <mxPoint y="-1" as="offset" />
          </mxGeometry>
        </mxCell>
        <mxCell id="VDO-NJuJKdAogAIneXLv-74" value="" style="endArrow=none;html=1;rounded=0;fontSize=12;startSize=8;endSize=8;curved=1;exitX=1;exitY=0.4;exitDx=0;exitDy=0;entryX=0;entryY=0.3333333333333333;entryDx=0;entryDy=0;entryPerimeter=0;exitPerimeter=0;" edge="1" parent="1" source="VDO-NJuJKdAogAIneXLv-113" target="VDO-NJuJKdAogAIneXLv-53">
          <mxGeometry width="50" height="50" relative="1" as="geometry">
            <mxPoint x="1070" y="842" as="sourcePoint" />
            <mxPoint x="1160" y="806" as="targetPoint" />
          </mxGeometry>
        </mxCell>
        <mxCell id="VDO-NJuJKdAogAIneXLv-75" value="use" style="edgeLabel;html=1;align=center;verticalAlign=middle;resizable=0;points=[];fontSize=12;" vertex="1" connectable="0" parent="VDO-NJuJKdAogAIneXLv-74">
          <mxGeometry x="-0.0175" y="2" relative="1" as="geometry">
            <mxPoint y="-1" as="offset" />
          </mxGeometry>
        </mxCell>
        <mxCell id="VDO-NJuJKdAogAIneXLv-76" value="" style="endArrow=none;html=1;rounded=0;fontSize=12;startSize=8;endSize=8;curved=1;exitX=0;exitY=0.3333333333333333;exitDx=0;exitDy=0;entryX=1;entryY=0.5;entryDx=0;entryDy=0;exitPerimeter=0;" edge="1" parent="1" source="VDO-NJuJKdAogAIneXLv-53" target="VDO-NJuJKdAogAIneXLv-56">
          <mxGeometry width="50" height="50" relative="1" as="geometry">
            <mxPoint x="1090" y="710" as="sourcePoint" />
            <mxPoint x="1170" y="816" as="targetPoint" />
          </mxGeometry>
        </mxCell>
        <mxCell id="VDO-NJuJKdAogAIneXLv-77" value="use" style="edgeLabel;html=1;align=center;verticalAlign=middle;resizable=0;points=[];fontSize=12;" vertex="1" connectable="0" parent="VDO-NJuJKdAogAIneXLv-76">
          <mxGeometry x="-0.0175" y="2" relative="1" as="geometry">
            <mxPoint y="-1" as="offset" />
          </mxGeometry>
        </mxCell>
        <mxCell id="VDO-NJuJKdAogAIneXLv-78" value="결제시스템" style="rounded=0;whiteSpace=wrap;html=1;" vertex="1" parent="1">
          <mxGeometry x="1090" y="1250" width="120" height="60" as="geometry" />
        </mxCell>
        <mxCell id="VDO-NJuJKdAogAIneXLv-84" value="" style="edgeStyle=segmentEdgeStyle;endArrow=none;html=1;curved=0;rounded=0;endSize=8;startSize=8;fontSize=12;exitX=0;exitY=0.5;exitDx=0;exitDy=0;entryX=0.5;entryY=1;entryDx=0;entryDy=0;endFill=0;" edge="1" parent="1" source="VDO-NJuJKdAogAIneXLv-78" target="VDO-NJuJKdAogAIneXLv-52">
          <mxGeometry width="50" height="50" relative="1" as="geometry">
            <mxPoint x="940" y="1230" as="sourcePoint" />
            <mxPoint x="990" y="1180" as="targetPoint" />
          </mxGeometry>
        </mxCell>
        <mxCell id="VDO-NJuJKdAogAIneXLv-85" value="use" style="edgeLabel;html=1;align=center;verticalAlign=middle;resizable=0;points=[];fontSize=12;" vertex="1" connectable="0" parent="VDO-NJuJKdAogAIneXLv-84">
          <mxGeometry x="-0.3813" y="-2" relative="1" as="geometry">
            <mxPoint as="offset" />
          </mxGeometry>
        </mxCell>
        <mxCell id="VDO-NJuJKdAogAIneXLv-113" value="회원관리" style="ellipse;whiteSpace=wrap;html=1;" vertex="1" parent="1">
          <mxGeometry x="980" y="816" width="90" height="60" as="geometry" />
        </mxCell>
        <mxCell id="VDO-NJuJKdAogAIneXLv-114" style="edgeStyle=none;curved=1;rounded=0;orthogonalLoop=1;jettySize=auto;html=1;entryX=0;entryY=0.5;entryDx=0;entryDy=0;fontSize=12;startSize=8;endSize=8;endArrow=block;endFill=0;" edge="1" parent="1" source="VDO-NJuJKdAogAIneXLv-115" target="VDO-NJuJKdAogAIneXLv-113">
          <mxGeometry relative="1" as="geometry" />
        </mxCell>
        <mxCell id="VDO-NJuJKdAogAIneXLv-115" value="게시물&lt;div&gt;조회&lt;/div&gt;" style="ellipse;whiteSpace=wrap;html=1;" vertex="1" parent="1">
          <mxGeometry x="870" y="826" width="60" height="40" as="geometry" />
        </mxCell>
        <mxCell id="VDO-NJuJKdAogAIneXLv-116" style="edgeStyle=orthogonalEdgeStyle;rounded=0;orthogonalLoop=1;jettySize=auto;html=1;exitX=1;exitY=0.5;exitDx=0;exitDy=0;fontSize=12;startSize=8;endSize=8;entryX=0;entryY=0.5;entryDx=0;entryDy=0;endArrow=block;endFill=0;" edge="1" parent="1" source="VDO-NJuJKdAogAIneXLv-117" target="VDO-NJuJKdAogAIneXLv-113">
          <mxGeometry relative="1" as="geometry">
            <mxPoint x="950" y="846" as="targetPoint" />
          </mxGeometry>
        </mxCell>
        <mxCell id="VDO-NJuJKdAogAIneXLv-117" value="게시물&lt;div&gt;조회&lt;/div&gt;" style="ellipse;whiteSpace=wrap;html=1;" vertex="1" parent="1">
          <mxGeometry x="870" y="876" width="60" height="40" as="geometry" />
        </mxCell>
        <mxCell id="VDO-NJuJKdAogAIneXLv-118" style="edgeStyle=orthogonalEdgeStyle;rounded=0;orthogonalLoop=1;jettySize=auto;html=1;entryX=0;entryY=0.5;entryDx=0;entryDy=0;fontSize=12;startSize=8;endSize=8;endArrow=block;endFill=0;" edge="1" parent="1" source="VDO-NJuJKdAogAIneXLv-119" target="VDO-NJuJKdAogAIneXLv-113">
          <mxGeometry relative="1" as="geometry" />
        </mxCell>
        <mxCell id="VDO-NJuJKdAogAIneXLv-119" value="게시물&lt;div&gt;조회&lt;/div&gt;" style="ellipse;whiteSpace=wrap;html=1;" vertex="1" parent="1">
          <mxGeometry x="870" y="776" width="60" height="40" as="geometry" />
        </mxCell>
        <mxCell id="VDO-NJuJKdAogAIneXLv-124" value="" style="edgeStyle=orthogonalEdgeStyle;rounded=0;orthogonalLoop=1;jettySize=auto;html=1;entryX=0.74;entryY=0.895;entryDx=0;entryDy=0;entryPerimeter=0;fontSize=12;startSize=8;endSize=8;endArrow=block;endFill=0;dashed=1;" edge="1" parent="1" source="VDO-NJuJKdAogAIneXLv-65" target="VDO-NJuJKdAogAIneXLv-71">
          <mxGeometry relative="1" as="geometry">
            <Array as="points">
              <mxPoint x="900" y="1000" />
              <mxPoint x="857" y="1000" />
            </Array>
          </mxGeometry>
        </mxCell>
        <mxCell id="VDO-NJuJKdAogAIneXLv-129" value="&amp;lt;&amp;lt;extends&amp;gt;&amp;gt;" style="edgeLabel;html=1;align=center;verticalAlign=middle;resizable=0;points=[];fontSize=12;" vertex="1" connectable="0" parent="VDO-NJuJKdAogAIneXLv-124">
          <mxGeometry x="0.4176" y="-2" relative="1" as="geometry">
            <mxPoint y="4" as="offset" />
          </mxGeometry>
        </mxCell>
        <mxCell id="VDO-NJuJKdAogAIneXLv-146" value="e" style="edgeStyle=orthogonalEdgeStyle;rounded=0;orthogonalLoop=1;jettySize=auto;html=1;entryX=0;entryY=1;entryDx=0;entryDy=0;fontSize=12;startSize=8;endSize=8;endArrow=blockThin;endFill=0;exitX=0.5;exitY=0;exitDx=0;exitDy=0;dashed=1;" edge="1" parent="1" source="VDO-NJuJKdAogAIneXLv-148" target="VDO-NJuJKdAogAIneXLv-149">
          <mxGeometry relative="1" as="geometry">
            <Array as="points">
              <mxPoint x="590" y="706" />
              <mxPoint x="647" y="706" />
              <mxPoint x="647" y="672" />
            </Array>
          </mxGeometry>
        </mxCell>
        <mxCell id="VDO-NJuJKdAogAIneXLv-147" value="&amp;lt;&amp;lt;extends&amp;gt;&amp;gt;" style="edgeLabel;html=1;align=center;verticalAlign=middle;resizable=0;points=[];fontSize=12;" vertex="1" connectable="0" parent="VDO-NJuJKdAogAIneXLv-146">
          <mxGeometry x="0.0499" y="-3" relative="1" as="geometry">
            <mxPoint as="offset" />
          </mxGeometry>
        </mxCell>
        <mxCell id="VDO-NJuJKdAogAIneXLv-148" value="게시물&lt;div&gt;조회&lt;/div&gt;" style="ellipse;whiteSpace=wrap;html=1;" vertex="1" parent="1">
          <mxGeometry x="560" y="734" width="60" height="40" as="geometry" />
        </mxCell>
        <mxCell id="VDO-NJuJKdAogAIneXLv-149" value="글" style="ellipse;whiteSpace=wrap;html=1;" vertex="1" parent="1">
          <mxGeometry x="620" y="640" width="50" height="38" as="geometry" />
        </mxCell>
        <mxCell id="VDO-NJuJKdAogAIneXLv-150" value="이미지" style="ellipse;whiteSpace=wrap;html=1;" vertex="1" parent="1">
          <mxGeometry x="510" y="640" width="50" height="38" as="geometry" />
        </mxCell>
        <mxCell id="VDO-NJuJKdAogAIneXLv-151" value="" style="edgeStyle=orthogonalEdgeStyle;rounded=0;orthogonalLoop=1;jettySize=auto;html=1;entryX=0.74;entryY=0.895;entryDx=0;entryDy=0;entryPerimeter=0;fontSize=12;startSize=8;endSize=8;endArrow=block;endFill=0;dashed=1;" edge="1" parent="1" source="VDO-NJuJKdAogAIneXLv-148" target="VDO-NJuJKdAogAIneXLv-150">
          <mxGeometry relative="1" as="geometry">
            <Array as="points">
              <mxPoint x="590" y="706" />
              <mxPoint x="547" y="706" />
            </Array>
          </mxGeometry>
        </mxCell>
        <mxCell id="VDO-NJuJKdAogAIneXLv-152" value="&amp;lt;&amp;lt;extends&amp;gt;&amp;gt;" style="edgeLabel;html=1;align=center;verticalAlign=middle;resizable=0;points=[];fontSize=12;" vertex="1" connectable="0" parent="VDO-NJuJKdAogAIneXLv-151">
          <mxGeometry x="0.4176" y="-2" relative="1" as="geometry">
            <mxPoint y="4" as="offset" />
          </mxGeometry>
        </mxCell>
        <mxCell id="VDO-NJuJKdAogAIneXLv-160" value="" style="endArrow=none;html=1;rounded=0;fontSize=12;startSize=8;endSize=8;curved=1;exitX=1;exitY=0.3333333333333333;exitDx=0;exitDy=0;exitPerimeter=0;entryX=0;entryY=0.5;entryDx=0;entryDy=0;" edge="1" parent="1" source="VDO-NJuJKdAogAIneXLv-2" target="VDO-NJuJKdAogAIneXLv-10">
          <mxGeometry width="50" height="50" relative="1" as="geometry">
            <mxPoint x="57" y="953" as="sourcePoint" />
            <mxPoint x="177" y="653" as="targetPoint" />
          </mxGeometry>
        </mxCell>
        <mxCell id="VDO-NJuJKdAogAIneXLv-161" value="use" style="edgeLabel;html=1;align=center;verticalAlign=middle;resizable=0;points=[];fontSize=12;" vertex="1" connectable="0" parent="VDO-NJuJKdAogAIneXLv-160">
          <mxGeometry x="-0.0175" y="2" relative="1" as="geometry">
            <mxPoint y="-1" as="offset" />
          </mxGeometry>
        </mxCell>
        <mxCell id="VDO-NJuJKdAogAIneXLv-162" value="" style="endArrow=none;html=1;rounded=0;fontSize=12;startSize=8;endSize=8;curved=1;exitX=1;exitY=0.3333333333333333;exitDx=0;exitDy=0;exitPerimeter=0;entryX=0;entryY=0.5;entryDx=0;entryDy=0;" edge="1" parent="1" source="VDO-NJuJKdAogAIneXLv-2" target="VDO-NJuJKdAogAIneXLv-34">
          <mxGeometry width="50" height="50" relative="1" as="geometry">
            <mxPoint x="67" y="963" as="sourcePoint" />
            <mxPoint x="187" y="663" as="targetPoint" />
          </mxGeometry>
        </mxCell>
        <mxCell id="VDO-NJuJKdAogAIneXLv-163" value="use" style="edgeLabel;html=1;align=center;verticalAlign=middle;resizable=0;points=[];fontSize=12;" vertex="1" connectable="0" parent="VDO-NJuJKdAogAIneXLv-162">
          <mxGeometry x="-0.0175" y="2" relative="1" as="geometry">
            <mxPoint y="-1" as="offset" />
          </mxGeometry>
        </mxCell>
        <mxCell id="VDO-NJuJKdAogAIneXLv-164" value="" style="endArrow=none;html=1;rounded=0;fontSize=12;startSize=8;endSize=8;curved=1;exitX=1;exitY=0.3333333333333333;exitDx=0;exitDy=0;exitPerimeter=0;entryX=0;entryY=0.5;entryDx=0;entryDy=0;" edge="1" parent="1" source="VDO-NJuJKdAogAIneXLv-2" target="VDO-NJuJKdAogAIneXLv-35">
          <mxGeometry width="50" height="50" relative="1" as="geometry">
            <mxPoint x="77" y="973" as="sourcePoint" />
            <mxPoint x="197" y="673" as="targetPoint" />
          </mxGeometry>
        </mxCell>
        <mxCell id="VDO-NJuJKdAogAIneXLv-165" value="use" style="edgeLabel;html=1;align=center;verticalAlign=middle;resizable=0;points=[];fontSize=12;" vertex="1" connectable="0" parent="VDO-NJuJKdAogAIneXLv-164">
          <mxGeometry x="-0.0175" y="2" relative="1" as="geometry">
            <mxPoint y="-1" as="offset" />
          </mxGeometry>
        </mxCell>
        <mxCell id="VDO-NJuJKdAogAIneXLv-166" value="" style="endArrow=none;html=1;rounded=0;fontSize=12;startSize=8;endSize=8;curved=1;exitX=1;exitY=0.3333333333333333;exitDx=0;exitDy=0;exitPerimeter=0;entryX=0;entryY=0.5;entryDx=0;entryDy=0;" edge="1" parent="1" source="VDO-NJuJKdAogAIneXLv-2" target="VDO-NJuJKdAogAIneXLv-36">
          <mxGeometry width="50" height="50" relative="1" as="geometry">
            <mxPoint x="87" y="983" as="sourcePoint" />
            <mxPoint x="207" y="683" as="targetPoint" />
          </mxGeometry>
        </mxCell>
        <mxCell id="VDO-NJuJKdAogAIneXLv-167" value="use" style="edgeLabel;html=1;align=center;verticalAlign=middle;resizable=0;points=[];fontSize=12;" vertex="1" connectable="0" parent="VDO-NJuJKdAogAIneXLv-166">
          <mxGeometry x="-0.0175" y="2" relative="1" as="geometry">
            <mxPoint y="-1" as="offset" />
          </mxGeometry>
        </mxCell>
        <mxCell id="VDO-NJuJKdAogAIneXLv-168" value="" style="endArrow=none;html=1;rounded=0;fontSize=12;startSize=8;endSize=8;curved=1;exitX=1;exitY=0.3333333333333333;exitDx=0;exitDy=0;exitPerimeter=0;entryX=-0.011;entryY=0.317;entryDx=0;entryDy=0;entryPerimeter=0;" edge="1" parent="1" source="VDO-NJuJKdAogAIneXLv-2" target="VDO-NJuJKdAogAIneXLv-37">
          <mxGeometry width="50" height="50" relative="1" as="geometry">
            <mxPoint x="97" y="993" as="sourcePoint" />
            <mxPoint x="217" y="693" as="targetPoint" />
          </mxGeometry>
        </mxCell>
        <mxCell id="VDO-NJuJKdAogAIneXLv-169" value="use" style="edgeLabel;html=1;align=center;verticalAlign=middle;resizable=0;points=[];fontSize=12;" vertex="1" connectable="0" parent="VDO-NJuJKdAogAIneXLv-168">
          <mxGeometry x="-0.0175" y="2" relative="1" as="geometry">
            <mxPoint y="-1" as="offset" />
          </mxGeometry>
        </mxCell>
        <mxCell id="VDO-NJuJKdAogAIneXLv-170" value="" style="endArrow=none;html=1;rounded=0;fontSize=12;startSize=8;endSize=8;curved=1;exitX=1;exitY=0.3333333333333333;exitDx=0;exitDy=0;exitPerimeter=0;entryX=0;entryY=0.5;entryDx=0;entryDy=0;" edge="1" parent="1" source="VDO-NJuJKdAogAIneXLv-2" target="VDO-NJuJKdAogAIneXLv-38">
          <mxGeometry width="50" height="50" relative="1" as="geometry">
            <mxPoint x="107" y="1003" as="sourcePoint" />
            <mxPoint x="227" y="703" as="targetPoint" />
          </mxGeometry>
        </mxCell>
        <mxCell id="VDO-NJuJKdAogAIneXLv-171" value="use" style="edgeLabel;html=1;align=center;verticalAlign=middle;resizable=0;points=[];fontSize=12;" vertex="1" connectable="0" parent="VDO-NJuJKdAogAIneXLv-170">
          <mxGeometry x="-0.0175" y="2" relative="1" as="geometry">
            <mxPoint y="-1" as="offset" />
          </mxGeometry>
        </mxCell>
        <mxCell id="VDO-NJuJKdAogAIneXLv-172" value="로그인" style="ellipse;whiteSpace=wrap;html=1;" vertex="1" parent="1">
          <mxGeometry x="340" y="1140" width="90" height="60" as="geometry" />
        </mxCell>
      </root>
    </mxGraphModel>
  </diagram>
  <diagram id="theCaqrfbjqx4DtahPQ9" name="페이지-2">
    <mxGraphModel dx="823" dy="754" grid="0" gridSize="10" guides="1" tooltips="1" connect="1" arrows="1" fold="1" page="0" pageScale="1" pageWidth="827" pageHeight="1169" math="0" shadow="0">
      <root>
        <mxCell id="0" />
        <mxCell id="1" parent="0" />
      </root>
    </mxGraphModel>
  </diagram>
</mxfile>
